<svg width="722" height="392" viewBox="0 0 722 392" fill="none" xmlns="http://www.w3.org/2000/svg">
<g clip-path="url(#clip0_153_2)">
<path d="M363.316 392C559.092 392 717.8 381.509 717.8 368.569C717.8 355.628 559.092 345.137 363.316 345.137C167.54 345.137 8.83203 355.628 8.83203 368.569C8.83203 381.509 167.54 392 363.316 392Z" fill="#F2F2F2"/>
<path d="M349.73 112.058C291.975 112.058 250.508 149.055 250.508 235.381C250.508 333.216 291.975 359.114 349.73 359.114C407.486 359.114 451.423 330.75 451.423 235.381C451.423 133.434 407.486 112.058 349.73 112.058ZM350.11 326.639C310.108 326.639 289.209 303.207 289.209 235.444C289.209 175.653 310.963 144.122 350.966 144.122C390.968 144.122 412.723 164.833 412.723 235.444C412.722 301.499 390.113 326.639 350.11 326.639Z" fill="#2F2E41"/>
<path d="M215.923 290.876H192.044V220.666C192.044 216.937 190.56 213.36 187.919 210.724C185.278 208.087 181.696 206.605 177.961 206.605H172.366C170.516 206.605 168.685 206.969 166.977 207.676C165.268 208.382 163.716 209.418 162.408 210.724C161.1 212.029 160.063 213.579 159.355 215.285C158.647 216.991 158.283 218.82 158.283 220.666V290.876H90.9278C89.5422 290.876 88.18 290.518 86.9736 289.838C85.7671 289.157 84.7573 288.177 84.0421 286.992C83.3269 285.807 82.9306 284.457 82.8916 283.075C82.8526 281.692 83.1722 280.322 83.8196 279.099L155.108 144.382C155.997 142.702 156.535 140.86 156.691 138.967C156.847 137.074 156.618 135.169 156.016 133.367C155.414 131.564 154.453 129.903 153.191 128.482C151.928 127.061 150.39 125.91 148.67 125.099L144.461 123.115C141.194 121.574 137.458 121.346 134.027 122.479C130.596 123.612 127.732 126.018 126.029 129.2L39.0833 291.596C37.6027 294.362 36.8281 297.449 36.8281 300.585C36.8281 303.088 37.322 305.568 38.2817 307.881C39.2413 310.194 40.6479 312.296 42.4211 314.066C44.1943 315.837 46.2994 317.241 48.6162 318.199C50.933 319.158 53.4161 319.651 55.9238 319.651H158.283V364.047C158.283 366.26 158.72 368.452 159.568 370.497C160.416 372.541 161.66 374.399 163.227 375.964C164.795 377.529 166.656 378.771 168.704 379.618C170.752 380.465 172.947 380.901 175.163 380.901H175.163C177.38 380.901 179.575 380.465 181.623 379.618C183.671 378.771 185.532 377.529 187.1 375.964C188.667 374.399 189.91 372.541 190.759 370.497C191.607 368.452 192.044 366.26 192.044 364.047V319.651H215.923C219.745 319.651 223.41 318.135 226.112 315.437C228.815 312.739 230.333 309.079 230.333 305.263C230.333 301.447 228.815 297.788 226.112 295.09C223.41 292.391 219.745 290.876 215.923 290.876Z" fill="#6C63FF"/>
<path d="M658.103 290.876H634.223V220.666C634.223 216.937 632.74 213.36 630.099 210.724C627.458 208.087 623.876 206.605 620.141 206.605H614.545C612.696 206.605 610.865 206.969 609.156 207.676C607.448 208.382 605.895 209.418 604.588 210.724C603.28 212.029 602.243 213.579 601.535 215.285C600.827 216.991 600.463 218.82 600.463 220.666V290.876H533.107C531.722 290.876 530.36 290.518 529.153 289.838C527.947 289.157 526.937 288.177 526.222 286.992C525.507 285.807 525.11 284.457 525.071 283.075C525.032 281.692 525.352 280.322 525.999 279.099L597.287 144.382C598.176 142.702 598.715 140.86 598.871 138.967C599.027 137.074 598.797 135.169 598.196 133.367C597.594 131.564 596.633 129.903 595.37 128.482C594.108 127.061 592.57 125.91 590.849 125.099L586.641 123.115C583.373 121.574 579.637 121.346 576.206 122.479C572.775 123.612 569.912 126.018 568.208 129.2L481.263 291.596C479.782 294.362 479.008 297.449 479.008 300.585C479.008 305.641 481.02 310.491 484.601 314.066C488.182 317.642 493.039 319.651 498.103 319.651H600.463V364.047C600.463 368.517 602.241 372.804 605.407 375.964C608.573 379.125 612.866 380.901 617.343 380.901C621.82 380.901 626.113 379.125 629.279 375.964C632.445 372.804 634.223 368.517 634.223 364.047V319.651H658.102C661.924 319.651 665.589 318.135 668.292 315.437C670.994 312.739 672.512 309.079 672.512 305.263C672.512 301.447 670.994 297.788 668.292 295.09C665.589 292.391 661.924 290.876 658.103 290.876Z" fill="#6C63FF"/>
<path d="M222.511 282.654H198.632V212.444C198.632 210.598 198.267 208.77 197.56 207.064C196.852 205.358 195.815 203.808 194.507 202.502C193.199 201.196 191.647 200.161 189.938 199.454C188.23 198.747 186.398 198.384 184.549 198.384H178.954C175.219 198.384 171.637 199.865 168.996 202.502C166.355 205.139 164.871 208.715 164.871 212.444V282.654H97.5157C96.1301 282.654 94.7679 282.297 93.5615 281.616C92.355 280.936 91.3452 279.955 90.63 278.77C89.9148 277.585 89.5185 276.236 89.4795 274.853C89.4405 273.47 89.7601 272.101 90.4075 270.877L161.696 136.16C162.584 134.481 163.123 132.639 163.279 130.745C163.435 128.852 163.206 126.947 162.604 125.145C162.002 123.343 161.041 121.681 159.779 120.26C158.516 118.839 156.978 117.689 155.258 116.877L151.049 114.893C147.782 113.352 144.046 113.125 140.615 114.258C137.184 115.391 134.32 117.797 132.617 120.979L45.6712 283.375C44.1906 286.14 43.416 289.228 43.416 292.363V292.363C43.416 297.42 45.4279 302.269 49.009 305.845C52.5901 309.421 57.4472 311.429 62.5117 311.429H164.871V355.825C164.871 358.039 165.308 360.23 166.156 362.275C167.004 364.32 168.248 366.178 169.815 367.743C171.383 369.308 173.244 370.55 175.292 371.396C177.34 372.243 179.535 372.679 181.751 372.679H181.751C186.228 372.679 190.522 370.904 193.687 367.743C196.853 364.582 198.631 360.295 198.631 355.825V311.429H222.511C224.403 311.429 226.277 311.057 228.025 310.334C229.774 309.611 231.362 308.551 232.7 307.215C234.038 305.879 235.1 304.293 235.824 302.548C236.548 300.802 236.921 298.931 236.921 297.042V297.042C236.921 295.152 236.548 293.281 235.824 291.536C235.1 289.79 234.038 288.204 232.7 286.868C231.362 285.532 229.774 284.472 228.025 283.749C226.277 283.026 224.403 282.654 222.511 282.654V282.654Z" stroke="#3F3D56" stroke-miterlimit="10"/>
<path d="M670.454 282.654H646.575V212.444C646.575 208.715 645.091 205.139 642.45 202.502C639.809 199.865 636.227 198.384 632.492 198.384H626.897C625.048 198.384 623.216 198.747 621.508 199.454C619.799 200.161 618.247 201.196 616.939 202.502C615.631 203.808 614.594 205.358 613.886 207.064C613.179 208.77 612.815 210.598 612.815 212.444V282.654H545.459C544.073 282.654 542.711 282.297 541.505 281.616C540.298 280.936 539.289 279.955 538.573 278.77C537.858 277.585 537.462 276.236 537.423 274.853C537.384 273.47 537.704 272.101 538.351 270.877L609.639 136.16C610.528 134.481 611.067 132.639 611.223 130.745C611.379 128.852 611.149 126.947 610.547 125.145C609.946 123.343 608.985 121.681 607.722 120.26C606.459 118.839 604.921 117.689 603.201 116.877L598.993 114.893C595.725 113.352 591.989 113.125 588.558 114.258C585.127 115.391 582.264 117.797 580.56 120.979L493.615 283.375C492.134 286.14 491.359 289.228 491.359 292.363C491.359 297.42 493.371 302.269 496.952 305.845C500.534 309.421 505.391 311.429 510.455 311.429H612.815V355.825C612.815 360.295 614.593 364.582 617.759 367.743C620.924 370.904 625.218 372.679 629.695 372.679V372.679C634.172 372.679 638.465 370.904 641.631 367.743C644.796 364.582 646.575 360.295 646.575 355.825V311.429H670.454C672.347 311.429 674.22 311.057 675.969 310.334C677.717 309.611 679.305 308.551 680.644 307.215C681.982 305.879 683.043 304.293 683.767 302.548C684.491 300.802 684.864 298.931 684.864 297.042V297.042C684.864 293.226 683.346 289.566 680.644 286.868C677.941 284.17 674.276 282.654 670.454 282.654V282.654Z" stroke="#3F3D56" stroke-miterlimit="10"/>
<path d="M362.904 104.659C305.149 104.659 263.682 141.655 263.682 227.981C263.682 325.817 305.149 351.715 362.904 351.715C420.659 351.715 464.597 323.351 464.597 227.981C464.597 126.035 420.659 104.659 362.904 104.659ZM363.284 319.24C323.281 319.24 302.383 295.808 302.383 228.044C302.383 168.253 324.137 136.723 364.139 136.723C404.142 136.723 425.896 157.434 425.896 228.044C425.896 294.099 403.286 319.24 363.284 319.24V319.24Z" stroke="#3F3D56" stroke-miterlimit="10"/>
<path d="M316.611 20.9017C321.399 20.9017 325.281 17.0262 325.281 12.2454C325.281 7.46472 321.399 3.58917 316.611 3.58917C311.823 3.58917 307.941 7.46472 307.941 12.2454C307.941 17.0262 311.823 20.9017 316.611 20.9017Z" fill="#2F2E41"/>
<path d="M337.757 62.9163C351.187 62.9163 362.074 48.832 362.074 31.4581C362.074 14.0843 351.187 0 337.757 0C324.327 0 313.439 14.0843 313.439 31.4581C313.439 48.832 324.327 62.9163 337.757 62.9163Z" fill="#2F2E41"/>
<path opacity="0.1" d="M337.757 53.4155C325.575 53.4155 315.486 41.8276 313.715 26.7078C313.531 28.2845 313.439 29.8707 313.439 31.4582C313.439 48.832 324.327 62.9163 337.757 62.9163C351.187 62.9163 362.074 48.832 362.074 31.4582C362.075 29.8707 361.983 28.2845 361.799 26.7078C360.028 41.8276 349.939 53.4155 337.757 53.4155Z" fill="black"/>
<path d="M387.24 123.585C386.718 125.727 384.466 127.443 381.973 128.642C376.73 131.163 370.263 131.915 363.99 132.168C362.39 132.265 360.784 132.235 359.189 132.079C356.097 131.781 353.196 130.449 350.956 128.301C350.796 128.197 350.665 128.054 350.576 127.886C350.486 127.717 350.441 127.529 350.443 127.339C350.446 127.148 350.498 126.961 350.592 126.796C350.687 126.63 350.822 126.492 350.986 126.393C354.325 122.73 359.898 120.484 365.512 118.867C369.769 117.641 377.192 114.465 381.835 114.893C386.332 115.309 387.9 120.879 387.24 123.585Z" fill="#3F3D56"/>
<path opacity="0.1" d="M387.24 123.585C386.718 125.727 384.466 127.443 381.973 128.642C376.73 131.163 370.263 131.915 363.99 132.168C362.39 132.265 360.784 132.235 359.189 132.079C356.097 131.781 353.196 130.449 350.956 128.301C350.796 128.197 350.665 128.054 350.576 127.886C350.486 127.717 350.441 127.529 350.443 127.339C350.446 127.148 350.498 126.961 350.592 126.796C350.687 126.63 350.822 126.492 350.986 126.393C354.325 122.73 359.898 120.484 365.512 118.867C369.769 117.641 377.192 114.465 381.835 114.893C386.332 115.309 387.9 120.879 387.24 123.585Z" fill="black"/>
<path d="M320.576 107.57C318.976 110.702 318.686 114.34 319.771 117.685C320.874 121.005 322.939 123.923 325.704 126.07C332.488 131.499 341.824 132.246 350.518 132.171C358.137 132.105 365.746 131.584 373.303 130.612C375.835 130.388 378.323 129.811 380.696 128.898C383.533 127.672 386.027 125.424 387.037 122.506C388.047 119.589 387.33 116.017 384.931 114.07C382.823 112.359 379.916 112.123 377.204 111.961L361.689 111.03C363.222 109.481 365.263 108.605 367.13 107.479C369.606 105.985 371.251 103.477 373.052 101.216C375.827 97.9049 378.845 94.806 382.083 91.9449C382.588 94.837 384.42 97.2119 386.577 99.2074C388.733 101.203 391.219 102.809 393.461 104.709C398.89 109.311 402.799 115.557 408.509 119.807C412.436 118.776 416.108 116.946 419.293 114.431L417.074 110.417C416.889 110.004 416.601 109.645 416.238 109.375C415.61 108.99 414.8 109.188 414.071 109.079C412.121 108.787 411.27 106.54 410.505 104.726C408.405 99.7466 404.384 95.8831 400.951 91.707C398.416 88.6244 396.168 85.3179 394.233 81.8285C393.08 79.7474 392.024 77.5806 390.458 75.7876C388.893 73.9947 386.699 72.5851 384.317 72.5801C382.212 72.5756 380.271 73.6426 378.461 74.7158C372.949 77.9848 367.646 81.5924 362.582 85.5177C359.931 87.572 357.297 89.7424 354.189 91.0021C352.88 91.5324 351.5 91.8949 350.244 92.5401C348.045 93.6703 346.375 95.5825 344.578 97.2799C338.169 103.334 329.394 107.257 320.576 107.57Z" fill="#3F3D56"/>
<path d="M353.019 64.4786C352.947 66.3293 352.552 68.1532 351.854 69.8688C351.499 70.7244 350.972 71.498 350.306 72.1413C349.639 72.7846 348.846 73.2838 347.978 73.6079C346.744 73.9378 345.451 73.9797 344.199 73.7303C343.107 73.6164 342.055 73.2585 341.12 72.6831C339.665 71.6845 338.94 69.9025 338.676 68.1586C338.411 66.4168 338.53 64.637 338.361 62.8825C338.196 61.4654 337.926 60.0625 337.553 58.6853C337.439 58.2271 337.322 57.7711 337.208 57.3151C337.096 56.859 336.986 56.403 336.885 55.947C336.792 55.5184 336.705 55.0877 336.631 54.6548C336.57 54.2896 336.515 53.9222 336.474 53.5527C336.437 52.4574 336.255 51.3718 335.931 50.3246C335.627 49.6454 335.247 49.003 334.798 48.4097C334.605 48.1352 334.419 47.8607 334.248 47.5757C333.752 46.835 333.522 45.9489 333.594 45.0612C333.615 44.9239 333.648 44.7889 333.694 44.6579C333.711 44.6072 333.73 44.5566 333.751 44.508C333.941 44.4565 334.116 44.3593 334.26 44.225C334.404 44.0907 334.513 43.9233 334.578 43.7374C334.65 43.3379 334.616 42.9264 334.478 42.5445C334.32 42.0108 334.104 41.4961 333.833 41.0096C333.656 40.6887 333.053 40.1102 333.049 39.7428C333.04 39.0038 334.487 38.4084 335.073 38.1171C336.86 37.2232 338.854 36.8195 340.849 36.9474C342.129 37.034 343.516 37.4267 344.222 38.4971C344.857 39.462 344.772 40.7119 345.043 41.833C345.071 41.9959 345.14 42.1491 345.244 42.2784C345.382 42.404 345.555 42.4837 345.74 42.5064C346.054 42.5687 346.375 42.5815 346.692 42.5445H346.694C346.778 42.5378 346.861 42.5258 346.944 42.5086C347.438 42.4176 347.905 42.2162 348.31 41.9195C348.572 41.8498 348.836 41.7928 349.103 41.7485C349.113 41.7474 349.124 41.7453 349.134 41.7422C350.194 45.0801 350.331 48.6587 351.198 52.0579C351.627 53.749 352.243 55.4191 352.329 57.1588C352.336 57.2348 352.338 57.3129 352.34 57.391C352.353 57.9505 352.308 58.5142 352.332 59.0716C352.34 59.3226 352.368 59.5725 352.416 59.819C352.511 60.2154 352.629 60.6059 352.769 60.9886L352.776 61.0076C352.816 61.1301 352.854 61.2547 352.886 61.3792C352.909 61.47 352.93 61.5587 352.947 61.6495L352.949 61.6558C353.106 62.5888 353.129 63.5391 353.019 64.4786Z" fill="#FBBEBE"/>
<path d="M338.179 42.648C345.069 42.648 350.655 37.071 350.655 30.1914C350.655 23.3118 345.069 17.7348 338.179 17.7348C331.289 17.7348 325.703 23.3118 325.703 30.1914C325.703 37.071 331.289 42.648 338.179 42.648Z" fill="#FBBEBE"/>
<path d="M417.387 98.0607C417.025 94.6623 415.815 91.4087 413.868 88.598C414.192 90.5192 414.516 92.4398 414.841 94.3597C414.437 94.4764 414.008 94.4728 413.606 94.3494C413.204 94.226 412.847 93.9882 412.578 93.6651C412.053 93.0101 411.651 92.2654 411.392 91.4672C409.974 87.954 408.121 84.6324 405.875 81.5801C397.933 80.9192 390.081 77.632 383.097 73.8C376.11 69.9701 369.572 65.3781 362.679 61.3856C361.484 60.6643 360.239 60.0293 358.953 59.4854C356.796 58.6219 354.375 58.1743 352.33 57.1588C352.193 57.0912 352.055 57.0195 351.92 56.9456C351.458 56.6947 351.021 56.4014 350.613 56.0694C350.393 55.8909 350.184 55.6991 349.987 55.4951C348.967 54.31 348.158 52.9589 347.596 51.5006C346.498 49.0768 346.107 46.1527 345.012 43.7289C345.515 43.2592 346.081 42.8606 346.693 42.5445H346.695C346.784 42.498 346.872 42.4537 346.963 42.4115C347.397 42.2077 347.848 42.0431 348.31 41.9196C348.573 41.8499 348.837 41.7929 349.103 41.7485C349.114 41.7474 349.125 41.7453 349.135 41.7422C350.371 41.5412 351.636 41.6412 352.825 42.0336C354.563 42.6205 356.029 43.7923 357.49 44.9007C359.864 46.5704 362.14 48.3736 364.309 50.3014C365.514 51.4541 366.614 52.7209 367.91 53.7681C368.987 54.5981 370.123 55.3496 371.308 56.0166C378.322 60.1885 385.337 64.3597 392.352 68.5302C394.727 69.9426 397.104 71.3551 399.426 72.8499C402.953 75.1216 406.353 77.5834 409.751 80.043C411.754 81.4914 413.755 82.9404 415.756 84.3902C416.413 84.8083 416.989 85.3403 417.459 85.961C417.873 86.6657 418.131 87.4513 418.214 88.2644C418.716 91.5492 418.432 94.9061 417.387 98.0607Z" fill="#FBBEBE"/>
<path d="M356.114 73.8464C355.272 77.6151 351.457 79.8932 349.463 83.2036C346.985 87.3122 347.996 92.0879 348.926 96.794C347.226 98.2571 345.525 99.7202 343.824 101.183C342.885 101.988 341.946 102.796 340.935 103.508C339.462 104.494 337.921 105.377 336.326 106.151C334.82 106.924 333.314 107.697 331.809 108.471C330.409 109.257 328.926 109.885 327.387 110.342C324.421 111.102 321.27 110.57 318.335 109.69C317.989 109.599 317.656 109.463 317.345 109.286C317.162 109.177 317.003 109.033 316.876 108.862C316.587 108.344 316.481 107.744 316.578 107.158C316.876 102.226 318.083 97.3978 319.287 92.6052C319.93 89.7299 320.794 86.9086 321.873 84.1664C322.93 81.8166 324.146 79.5411 325.512 77.3554C327.019 74.6053 328.805 72.0167 330.84 69.6302C331.832 68.7117 332.666 67.6376 333.31 66.4506C334.061 64.7404 333.771 62.779 333.923 60.9169C334.04 59.5178 334.412 58.1518 335.021 56.8865V56.8844C335.347 56.2028 335.739 55.555 336.192 54.9504C336.397 55.4276 336.603 55.904 336.808 56.3797C336.943 56.6922 337.077 57.004 337.209 57.3151C337.383 57.7162 337.555 58.116 337.725 58.5143C338.218 59.6586 338.71 60.8022 339.201 61.9451C339.732 63.3846 340.489 64.7308 341.443 65.9334C341.879 66.5491 342.467 67.0415 343.151 67.3623C343.835 67.6831 344.59 67.8214 345.343 67.7638C346.096 67.7061 346.821 67.4545 347.448 67.0334C348.074 66.6123 348.581 66.0361 348.918 65.3612C349.629 64.1013 350.143 62.7409 350.444 61.3265C350.862 59.6044 350.92 57.8148 350.614 56.0694C350.104 52.7083 348.672 49.2753 347.632 46.1527C347.209 45.1116 346.963 44.0067 346.907 42.8844C346.909 42.7583 346.922 42.6326 346.945 42.5086C346.951 42.477 346.958 42.4432 346.964 42.4115C347.397 42.2077 347.848 42.0431 348.311 41.9196C348.573 41.8499 348.837 41.7929 349.104 41.7486C350.019 46.6974 350.937 51.6463 351.855 56.5951C351.876 56.7112 351.899 56.8274 351.92 56.9456C352.052 57.655 352.185 58.3644 352.333 59.0717C352.466 59.7135 352.61 60.3532 352.771 60.9887L352.777 61.0077C352.832 61.2231 352.889 61.4363 352.948 61.6495L352.95 61.6559C353.113 62.2386 353.295 62.8171 353.5 63.3871C354.743 66.8222 356.911 70.2805 356.114 73.8464Z" fill="#6C63FF"/>
<path d="M406.745 126.808C406.705 127.534 406.846 128.258 407.155 128.917C407.936 130.342 409.809 130.666 411.43 130.799C420.9 131.576 430.428 131.286 439.833 129.935C440.343 129.9 440.838 129.747 441.279 129.487C442.616 128.551 441.792 126.269 440.332 125.539C438.871 124.809 437.139 124.985 435.537 124.669C433.945 124.269 432.429 123.612 431.049 122.725C427.8 120.862 424.598 118.918 421.444 116.896C419.566 115.692 417.35 114.407 415.235 115.121C409.506 117.056 406.707 120.637 406.745 126.808Z" fill="#3F3D56"/>
<path d="M336.934 55.683V55.6851C336.92 55.7738 336.905 55.8604 336.886 55.9469C336.862 56.0905 336.835 56.2362 336.807 56.3797C336.545 57.7204 336.224 59.0547 335.854 60.3806C334.839 64.0437 333.479 67.6476 332.13 71.1988C328.51 80.7207 324.889 90.2433 321.268 99.7666C320.354 102.165 319.443 104.566 318.404 106.915C318.058 107.699 317.7 108.488 317.345 109.286C316.072 112.143 314.85 115.092 314.444 118.133C314.065 120.134 314.022 122.183 314.315 124.198C314.721 126.191 315.933 128.138 317.829 128.875C318.755 129.236 320.081 129.719 319.827 130.68C319.69 131.208 319.09 131.465 318.55 131.554C317.838 131.667 317.11 131.623 316.417 131.424C315.724 131.224 315.084 130.875 314.541 130.401C313.528 129.504 312.75 128.109 311.403 127.959C310.471 127.857 309.612 128.415 308.758 128.805C305.273 130.395 301.213 129.282 297.553 128.153C297.84 126.673 299.329 125.697 300.807 125.402C302.285 125.104 303.814 125.315 305.322 125.275C305.804 125.301 306.283 125.178 306.694 124.923C307.062 124.585 307.32 124.145 307.434 123.66C308.405 120.787 309.128 117.836 309.593 114.839C310.079 111.708 310.282 108.528 310.976 105.435C311.515 103.022 312.348 100.685 313.063 98.3162C314.445 93.4388 315.58 88.4949 316.463 83.5034C316.91 81.4296 317.23 79.3306 317.421 77.2181C317.542 75.4657 317.485 73.7049 317.654 71.9589C317.938 69.6873 318.412 67.4436 319.073 65.2513C319.72 62.8593 320.366 60.4686 321.012 58.0793C321.97 54.5429 322.997 50.8693 325.425 48.1204C326.268 47.1527 327.301 46.3681 328.46 45.8154C329.619 45.2626 330.88 44.9535 332.164 44.907C332.645 44.9064 333.125 44.9581 333.595 45.0611C333.674 45.0801 333.752 45.0991 333.83 45.1202C334.342 45.254 334.834 45.4572 335.291 45.7241C336.04 45.249 336.42 45.4158 336.917 46.1484C337.353 46.9238 337.558 47.807 337.509 48.6947C337.551 51.0374 337.359 53.3785 336.934 55.683Z" fill="#FBBEBE"/>
<path d="M337.757 58.4826L337.725 58.5143L337.554 58.6853L335.854 60.3807L335.021 56.8865L332.164 44.907C332.645 44.9064 333.125 44.9581 333.596 45.0611C333.616 44.9239 333.649 44.7889 333.695 44.6579L333.83 45.1202L334.799 48.4096L336.632 54.6548L336.934 55.683V55.6851L337.757 58.4826Z" fill="#6C63FF"/>
<path d="M348.543 20.2651C348.542 21.3743 348.322 22.4724 347.895 23.4966C347.468 24.5208 346.844 25.4509 346.057 26.2339C345.772 26.5189 345.466 26.7827 345.143 27.0232C343.683 28.1215 341.906 28.716 340.079 28.7168H329.934C327.692 28.7134 325.544 27.8218 323.96 26.238C322.376 24.6541 321.486 22.5074 321.486 20.2692C321.486 18.031 322.376 15.8843 323.96 14.3005C325.544 12.7166 327.692 11.8251 329.934 11.8216H340.079C342.32 11.8274 344.469 12.7186 346.055 14.3006C347.641 15.8826 348.535 18.0268 348.543 20.2651Z" fill="#2F2E41"/>
<path d="M358.056 20.9017C362.845 20.9017 366.726 17.0262 366.726 12.2454C366.726 7.46472 362.845 3.58917 358.056 3.58917C353.268 3.58917 349.387 7.46472 349.387 12.2454C349.387 17.0262 353.268 20.9017 358.056 20.9017Z" fill="#2F2E41"/>
<path opacity="0.1" d="M357.845 3.58919C357.738 3.58919 357.633 3.5934 357.527 3.59719C359.77 3.6786 361.894 4.62539 363.452 6.23836C365.009 7.85133 365.88 10.0047 365.88 12.2455C365.88 14.4862 365.009 16.6396 363.452 18.2526C361.894 19.8655 359.77 20.8123 357.527 20.8937C357.633 20.8975 357.738 20.9017 357.845 20.9017C360.144 20.9017 362.349 19.9897 363.975 18.3664C365.601 16.743 366.514 14.5412 366.514 12.2455C366.514 9.94968 365.601 7.74792 363.975 6.12455C362.349 4.50119 360.144 3.58919 357.845 3.58919Z" fill="black"/>
<path opacity="0.1" d="M316.611 3.58919C316.718 3.58919 316.823 3.5934 316.928 3.59719C314.686 3.6786 312.562 4.62539 311.004 6.23836C309.446 7.85133 308.576 10.0047 308.576 12.2455C308.576 14.4862 309.446 16.6396 311.004 18.2526C312.562 19.8655 314.686 20.8123 316.928 20.8937C316.823 20.8975 316.718 20.9017 316.611 20.9017C314.313 20.8997 312.11 19.9868 310.486 18.3637C308.862 16.7405 307.949 14.5399 307.949 12.2455C307.949 9.951 308.862 7.75039 310.486 6.12725C312.11 4.5041 314.313 3.59121 316.611 3.58919Z" fill="black"/>
<path opacity="0.1" d="M345.144 27.0232C343.685 28.1215 341.907 28.716 340.08 28.7168H329.935C328.108 28.716 326.33 28.1215 324.871 27.0232H345.144Z" fill="black"/>
<path d="M410.654 89.7459C410.654 89.7459 412.84 96.0339 414.84 94.3597L413.246 86.1404L410.654 89.7459Z" fill="#FBBEBE"/>
<path d="M676.621 281.504C678.656 282.243 680.836 282.5 682.988 282.254C685.14 282.008 687.206 281.267 689.022 280.088C690.838 278.91 692.355 277.326 693.453 275.462C694.552 273.598 695.202 271.505 695.352 269.347C695.502 267.19 695.148 265.027 694.318 263.029C693.488 261.032 692.205 259.254 690.569 257.836C688.934 256.418 686.991 255.399 684.893 254.858C682.796 254.318 680.602 254.271 678.483 254.722L678.833 261.91L675.427 255.75C672.085 257.318 669.502 260.147 668.248 263.616C667.802 264.83 667.531 266.102 667.443 267.393C667.228 270.422 668.008 273.437 669.664 275.984C671.32 278.53 673.762 280.468 676.621 281.504Z" fill="#57B894"/>
<path d="M693.473 364.867C692.27 358.755 697.48 353.336 702.626 349.813C707.772 346.291 713.785 342.83 715.541 336.852C718.064 328.261 710.548 320.394 704.697 313.609C700.357 308.574 696.63 303.043 693.593 297.132C692.376 294.761 691.258 292.284 690.937 289.639C690.476 285.831 691.701 282.042 692.936 278.41C697.048 266.309 701.445 254.31 706.126 242.412" stroke="#3F3D56" stroke-miterlimit="10"/>
<path d="M677.197 279.654C679.232 280.393 681.412 280.649 683.564 280.404C685.716 280.158 687.782 279.416 689.598 278.238C691.414 277.059 692.931 275.475 694.029 273.611C695.128 271.748 695.778 269.654 695.928 267.497C696.078 265.339 695.724 263.176 694.894 261.179C694.064 259.181 692.781 257.403 691.145 255.985C689.51 254.567 687.567 253.548 685.469 253.008C683.372 252.467 681.178 252.421 679.059 252.872L679.409 260.059L676.003 253.9C672.661 255.468 670.078 258.297 668.824 261.765C668.378 262.98 668.107 264.252 668.019 265.543C667.804 268.571 668.584 271.587 670.24 274.133C671.896 276.68 674.338 278.618 677.197 279.654V279.654Z" stroke="#3F3D56" stroke-miterlimit="10"/>
<path d="M691.763 239.93C692.561 237.729 693.902 235.764 695.661 234.217C697.421 232.669 699.542 231.589 701.829 231.075L702.981 237.908L705.116 230.731C708.08 230.775 710.954 231.759 713.322 233.539C715.69 235.32 717.43 237.806 718.29 240.639C719.151 243.472 719.088 246.504 718.11 249.298C717.132 252.093 715.29 254.505 712.85 256.186C710.41 257.867 707.498 258.73 704.534 258.651C701.571 258.571 698.709 257.554 696.362 255.745C694.016 253.936 692.305 251.429 691.479 248.587C690.652 245.744 690.751 242.713 691.762 239.93H691.763Z" fill="#57B894"/>
<path d="M692.53 237.463C693.329 235.262 694.67 233.297 696.429 231.75C698.188 230.202 700.309 229.121 702.597 228.608L703.748 235.44L705.883 228.264C708.848 228.308 711.721 229.291 714.089 231.072C716.457 232.853 718.197 235.339 719.058 238.172C719.919 241.004 719.856 244.037 718.878 246.831C717.9 249.625 716.058 252.037 713.618 253.718C711.177 255.399 708.265 256.262 705.302 256.183C702.338 256.104 699.476 255.086 697.13 253.278C694.783 251.469 693.073 248.962 692.246 246.119C691.419 243.277 691.519 240.245 692.53 237.463H692.53Z" stroke="#3F3D56" stroke-miterlimit="10"/>
<path d="M702.242 313.747C705.47 314.917 709.016 314.859 712.205 313.585C715.393 312.311 718.001 309.911 719.531 306.841C721.06 303.771 721.405 300.246 720.499 296.939C719.594 293.631 717.501 290.772 714.619 288.906L712.979 294.421L711.815 287.508C711.804 287.502 711.792 287.498 711.78 287.494C710.053 286.868 708.22 286.587 706.384 286.668C704.549 286.749 702.747 287.191 701.083 287.967C699.418 288.744 697.923 289.84 696.683 291.194C695.443 292.547 694.482 294.132 693.856 295.856C693.229 297.581 692.949 299.411 693.032 301.244C693.114 303.077 693.557 304.875 694.336 306.536C695.115 308.198 696.214 309.69 697.57 310.927C698.927 312.164 700.514 313.123 702.241 313.747H702.242Z" fill="#57B894"/>
<path d="M702.908 311.248C706.136 312.417 709.682 312.36 712.871 311.086C716.059 309.812 718.667 307.412 720.197 304.342C721.726 301.272 722.071 297.747 721.165 294.439C720.26 291.132 718.167 288.273 715.285 286.407L713.645 291.922L712.481 285.008C712.47 285.003 712.458 284.999 712.446 284.995C710.719 284.368 708.886 284.088 707.05 284.169C705.215 284.25 703.413 284.691 701.749 285.468C700.084 286.245 698.589 287.341 697.349 288.695C696.109 290.048 695.148 291.632 694.522 293.357C693.895 295.081 693.615 296.912 693.698 298.745C693.78 300.577 694.223 302.376 695.002 304.037C695.781 305.699 696.88 307.191 698.236 308.428C699.593 309.665 701.18 310.624 702.907 311.248H702.908Z" stroke="#3F3D56" stroke-miterlimit="10"/>
<path d="M687.682 336.938C688.237 340.091 689.861 342.959 692.282 345.058C694.703 347.158 697.774 348.363 700.979 348.471C704.184 348.579 707.329 347.583 709.886 345.65C712.443 343.718 714.257 340.966 715.023 337.857C715.789 334.748 715.462 331.47 714.095 328.573C712.728 325.677 710.405 323.337 707.516 321.948C704.627 320.558 701.347 320.203 698.226 320.941C695.106 321.679 692.334 323.466 690.377 326.003L696.608 335.367L688.094 330.397C687.434 332.513 687.292 334.756 687.682 336.938Z" fill="#57B894"/>
<path d="M688.258 335.087C688.813 338.241 690.437 341.108 692.858 343.208C695.279 345.308 698.35 346.513 701.555 346.621C704.76 346.728 707.905 345.732 710.462 343.8C713.019 341.867 714.833 339.116 715.599 336.007C716.365 332.897 716.038 329.62 714.671 326.723C713.304 323.826 710.981 321.487 708.092 320.097C705.203 318.708 701.923 318.352 698.802 319.09C695.682 319.829 692.91 321.616 690.953 324.152L697.184 333.517L688.67 328.546C688.01 330.662 687.868 332.905 688.258 335.087V335.087Z" stroke="#3F3D56" stroke-miterlimit="10"/>
<path d="M6.05259 315.522C7.39008 316.007 8.82223 316.176 10.2362 316.014C11.6501 315.853 13.0071 315.366 14.2003 314.591C15.3935 313.817 16.3903 312.776 17.112 311.552C17.8338 310.327 18.2608 308.952 18.3593 307.534C18.4579 306.117 18.2254 304.696 17.6801 303.383C17.1348 302.071 16.2917 300.903 15.2171 299.971C14.1426 299.039 12.866 298.37 11.4879 298.015C10.1099 297.66 8.66818 297.629 7.27632 297.925L7.50633 302.648L5.26862 298.601C3.07245 299.631 1.37581 301.49 0.551558 303.769C0.25883 304.567 0.0808733 305.402 0.0229965 306.25C-0.118248 308.24 0.393962 310.222 1.48201 311.895C2.57005 313.568 4.17463 314.841 6.05259 315.522Z" fill="#57B894"/>
<path d="M17.1256 370.293C16.3357 366.277 19.7586 362.716 23.1395 360.402C26.5205 358.088 30.471 355.814 31.6246 351.886C33.2825 346.242 28.3441 341.073 24.5004 336.615C21.6487 333.307 19.1998 329.673 17.2048 325.789C16.3375 324.264 15.7468 322.597 15.4599 320.867C15.1568 318.365 15.9618 315.875 16.7729 313.488C19.4748 305.538 22.3636 297.655 25.4393 289.837" stroke="#3F3D56" stroke-miterlimit="10"/>
<path d="M6.43151 314.306C7.769 314.791 9.20115 314.96 10.6151 314.799C12.029 314.637 13.386 314.15 14.5792 313.376C15.7724 312.601 16.7692 311.561 17.4909 310.336C18.2127 309.111 18.6396 307.736 18.7382 306.319C18.8368 304.901 18.6043 303.48 18.059 302.168C17.5137 300.855 16.6706 299.687 15.596 298.755C14.5215 297.824 13.2449 297.154 11.8668 296.799C10.4888 296.444 9.04709 296.413 7.65523 296.71L7.88524 301.432L5.64753 297.385C3.45136 298.415 1.75472 300.274 0.930465 302.553C0.63774 303.351 0.459786 304.186 0.401906 305.035C0.260652 307.024 0.772859 309.006 1.86091 310.679C2.94895 312.352 4.55353 313.625 6.43151 314.306V314.306Z" stroke="#3F3D56" stroke-miterlimit="10"/>
<path d="M16.0022 288.207C16.5271 286.761 17.408 285.47 18.5639 284.453C19.7197 283.436 21.1133 282.726 22.6161 282.389L23.3727 286.878L24.7755 282.163C26.7231 282.192 28.6111 282.838 30.167 284.008C31.7229 285.178 32.8661 286.811 33.4315 288.672C33.997 290.534 33.9555 292.526 33.313 294.362C32.6705 296.198 31.4603 297.782 29.857 298.887C28.2538 299.991 26.3405 300.558 24.3934 300.506C22.4462 300.454 20.5661 299.786 19.0243 298.597C17.4825 297.409 16.3589 295.762 15.8157 293.894C15.2725 292.027 15.3378 290.035 16.0022 288.207Z" fill="#57B894"/>
<path d="M16.5061 286.586C17.031 285.14 17.9119 283.849 19.0678 282.832C20.2236 281.815 21.6172 281.105 23.1201 280.768L23.8766 285.257L25.2794 280.542C27.227 280.571 29.115 281.217 30.6709 282.387C32.2268 283.557 33.37 285.19 33.9354 287.051C34.5009 288.912 34.4594 290.905 33.8169 292.741C33.1744 294.577 31.9642 296.161 30.3609 297.266C28.7577 298.37 26.8444 298.937 24.8973 298.885C22.9501 298.833 21.07 298.165 19.5282 296.976C17.9864 295.788 16.8628 294.141 16.3196 292.273C15.7764 290.405 15.8417 288.414 16.5061 286.586V286.586Z" stroke="#3F3D56" stroke-miterlimit="10"/>
<path d="M22.886 336.706C25.0072 337.474 27.3373 337.436 29.4322 336.599C31.5271 335.763 33.2404 334.185 34.2454 332.168C35.2505 330.151 35.477 327.835 34.8819 325.662C34.2868 323.489 32.9116 321.611 31.0184 320.385L29.9406 324.008L29.1763 319.466C29.1687 319.462 29.1609 319.459 29.1529 319.457C28.0183 319.045 26.8136 318.861 25.6075 318.914C24.4014 318.967 23.2176 319.257 22.1238 319.767C21.03 320.277 20.0477 320.998 19.2328 321.887C18.418 322.776 17.7867 323.817 17.375 324.951C16.9633 326.084 16.7793 327.287 16.8335 328.491C16.8877 329.695 17.179 330.877 17.6908 331.968C18.2026 333.06 18.9248 334.04 19.8163 334.853C20.7077 335.666 21.7508 336.296 22.886 336.706Z" fill="#57B894"/>
<path d="M23.3247 335.064C25.4458 335.832 27.7759 335.794 29.8708 334.957C31.9657 334.121 33.679 332.543 34.684 330.526C35.6891 328.509 35.9156 326.193 35.3205 324.02C34.7254 321.847 33.3502 319.969 31.4571 318.743L30.3792 322.366L29.6149 317.824C29.6074 317.82 29.5995 317.817 29.5915 317.815C28.4572 317.404 27.2529 317.221 26.0475 317.274C24.842 317.328 23.659 317.619 22.5659 318.129C20.3584 319.16 18.6514 321.024 17.8203 323.311C16.9893 325.598 17.1023 328.122 18.1346 330.326C19.1669 332.53 21.0338 334.234 23.3247 335.064V335.064Z" stroke="#3F3D56" stroke-miterlimit="10"/>
<path d="M13.3208 351.942C13.6856 354.014 14.7527 355.898 16.3434 357.278C17.9341 358.658 19.9515 359.449 22.0573 359.52C24.1632 359.591 26.2294 358.936 27.9094 357.667C29.5894 356.397 30.7811 354.589 31.2846 352.546C31.7881 350.504 31.5728 348.35 30.6747 346.447C29.7767 344.544 28.2506 343.007 26.3523 342.094C24.4541 341.181 22.2991 340.947 20.2488 341.432C18.1986 341.917 16.3777 343.092 15.0916 344.758L19.1857 350.911L13.5916 347.645C13.1579 349.035 13.065 350.509 13.3208 351.942Z" fill="#57B894"/>
<path d="M13.6978 350.727C14.0625 352.799 15.1297 354.682 16.7204 356.062C18.311 357.442 20.3285 358.233 22.4343 358.304C24.5401 358.375 26.6063 357.721 28.2864 356.451C29.9664 355.181 31.1581 353.373 31.6616 351.331C32.165 349.288 31.9497 347.134 31.0517 345.231C30.1537 343.328 28.6276 341.791 26.7293 340.878C24.831 339.965 22.6761 339.731 20.6258 340.216C18.5755 340.702 16.7547 341.876 15.4685 343.542L19.5626 349.695L13.9686 346.429C13.5348 347.819 13.442 349.293 13.6978 350.727V350.727Z" stroke="#3F3D56" stroke-miterlimit="10"/>
<path d="M323.2 228.877C329.509 228.877 334.624 222.269 334.624 214.116C334.624 205.964 329.509 199.355 323.2 199.355C316.89 199.355 311.775 205.964 311.775 214.116C311.775 222.269 316.89 228.877 323.2 228.877Z" fill="#2F2E41"/>
<path d="M385.36 229.213C391.669 229.213 396.784 222.604 396.784 214.452C396.784 206.299 391.669 199.69 385.36 199.69C379.05 199.69 373.936 206.299 373.936 214.452C373.936 222.604 379.05 229.213 385.36 229.213Z" fill="#2F2E41"/>
<path d="M376.623 258.065C376.623 264.734 367.296 270.142 355.791 270.142C344.286 270.142 334.959 264.734 334.959 258.065C334.959 252.287 341.955 247.457 351.302 246.276C352.79 246.08 354.29 245.983 355.791 245.987C358.307 245.979 360.815 246.249 363.271 246.792C371.079 248.53 376.623 252.925 376.623 258.065Z" fill="#2F2E41"/>
<path d="M325.887 225.523C332.196 225.523 337.311 218.914 337.311 210.761C337.311 202.609 332.196 196 325.887 196C319.578 196 314.463 202.609 314.463 210.761C314.463 218.914 319.578 225.523 325.887 225.523Z" stroke="#3F3D56" stroke-miterlimit="10"/>
<path d="M388.049 225.858C394.358 225.858 399.473 219.249 399.473 211.097C399.473 202.944 394.358 196.335 388.049 196.335C381.74 196.335 376.625 202.944 376.625 211.097C376.625 219.249 381.74 225.858 388.049 225.858Z" stroke="#3F3D56" stroke-miterlimit="10"/>
<path d="M358.481 266.787C369.986 266.787 379.313 261.38 379.313 254.71C379.313 248.039 369.986 242.632 358.481 242.632C346.975 242.632 337.648 248.039 337.648 254.71C337.648 261.38 346.975 266.787 358.481 266.787Z" stroke="#3F3D56" stroke-miterlimit="10"/>
<path d="M363.52 247.799C363.525 248.642 363.208 249.456 362.632 250.075C362.361 250.371 362.031 250.608 361.663 250.77C361.295 250.933 360.898 251.018 360.496 251.019H353.775C352.947 250.991 352.164 250.636 351.598 250.032C351.031 249.429 350.727 248.626 350.751 247.799C350.748 247.145 350.94 246.504 351.302 245.959C352.79 245.75 354.29 245.648 355.791 245.652C358.31 245.643 360.82 245.932 363.271 246.51C363.437 246.92 363.521 247.357 363.52 247.799Z" fill="white"/>
<path d="M325.887 210.09C327.743 210.09 329.247 208.588 329.247 206.735C329.247 204.883 327.743 203.381 325.887 203.381C324.032 203.381 322.527 204.883 322.527 206.735C322.527 208.588 324.032 210.09 325.887 210.09Z" fill="white"/>
<path d="M388.383 210.09C390.239 210.09 391.744 208.588 391.744 206.735C391.744 204.883 390.239 203.381 388.383 203.381C386.528 203.381 385.023 204.883 385.023 206.735C385.023 208.588 386.528 210.09 388.383 210.09Z" fill="white"/>
<path opacity="0.3" d="M391.745 241.626C393.6 241.626 395.105 240.124 395.105 238.271C395.105 236.418 393.6 234.916 391.745 234.916C389.889 234.916 388.385 236.418 388.385 238.271C388.385 240.124 389.889 241.626 391.745 241.626Z" fill="#6C63FF"/>
<path opacity="0.3" d="M309.758 241.626C311.614 241.626 313.118 240.124 313.118 238.271C313.118 236.418 311.614 234.916 309.758 234.916C307.903 234.916 306.398 236.418 306.398 238.271C306.398 240.124 307.903 241.626 309.758 241.626Z" fill="#6C63FF"/>
</g>
<defs>
<clipPath id="clip0_153_2">
<rect width="722" height="392" fill="white"/>
</clipPath>
</defs>
</svg>
