<svg width="32" height="32" viewBox="0 0 32 32" fill="none" xmlns="http://www.w3.org/2000/svg">
<path d="M15.9993 2.66663C19.622 2.66663 20.074 2.67996 21.4953 2.74663C22.9153 2.81329 23.882 3.03596 24.7327 3.36663C25.6127 3.70529 26.354 4.16396 27.0954 4.90396C27.7733 5.57049 28.298 6.37674 28.6327 7.26663C28.962 8.11596 29.186 9.08396 29.2527 10.504C29.3153 11.9253 29.3327 12.3773 29.3327 16C29.3327 19.6226 29.3194 20.0746 29.2527 21.496C29.186 22.916 28.962 23.8826 28.6327 24.7333C28.2989 25.6237 27.7742 26.4301 27.0954 27.096C26.4286 27.7737 25.6224 28.2983 24.7327 28.6333C23.8833 28.9626 22.9153 29.1866 21.4953 29.2533C20.074 29.316 19.622 29.3333 15.9993 29.3333C12.3767 29.3333 11.9247 29.32 10.5033 29.2533C9.08335 29.1866 8.11668 28.9626 7.26602 28.6333C6.37578 28.2993 5.56939 27.7746 4.90335 27.096C4.22522 26.4295 3.70059 25.6233 3.36602 24.7333C3.03535 23.884 2.81268 22.916 2.74602 21.496C2.68335 20.0746 2.66602 19.6226 2.66602 16C2.66602 12.3773 2.67935 11.9253 2.74602 10.504C2.81268 9.08263 3.03535 8.11729 3.36602 7.26663C3.69966 6.3762 4.22442 5.56972 4.90335 4.90396C5.56958 4.2256 6.37592 3.70093 7.26602 3.36663C8.11668 3.03596 9.08202 2.81329 10.5033 2.74663C11.9247 2.68396 12.3767 2.66663 15.9993 2.66663ZM15.9993 9.33329C14.2312 9.33329 12.5355 10.0357 11.2853 11.2859C10.0351 12.5362 9.33268 14.2318 9.33268 16C9.33268 17.7681 10.0351 19.4638 11.2853 20.714C12.5355 21.9642 14.2312 22.6666 15.9993 22.6666C17.7675 22.6666 19.4632 21.9642 20.7134 20.714C21.9636 19.4638 22.666 17.7681 22.666 16C22.666 14.2318 21.9636 12.5362 20.7134 11.2859C19.4632 10.0357 17.7675 9.33329 15.9993 9.33329ZM24.666 8.99996C24.666 8.55793 24.4904 8.13401 24.1779 7.82145C23.8653 7.50889 23.4414 7.33329 22.9993 7.33329C22.5573 7.33329 22.1334 7.50889 21.8208 7.82145C21.5083 8.13401 21.3327 8.55793 21.3327 8.99996C21.3327 9.44199 21.5083 9.86591 21.8208 10.1785C22.1334 10.491 22.5573 10.6666 22.9993 10.6666C23.4414 10.6666 23.8653 10.491 24.1779 10.1785C24.4904 9.86591 24.666 9.44199 24.666 8.99996ZM15.9993 12C17.0602 12 18.0776 12.4214 18.8278 13.1715C19.5779 13.9217 19.9993 14.9391 19.9993 16C19.9993 17.0608 19.5779 18.0782 18.8278 18.8284C18.0776 19.5785 17.0602 20 15.9993 20C14.9385 20 13.9211 19.5785 13.1709 18.8284C12.4208 18.0782 11.9993 17.0608 11.9993 16C11.9993 14.9391 12.4208 13.9217 13.1709 13.1715C13.9211 12.4214 14.9385 12 15.9993 12Z" fill="white"/>
</svg>
