<svg width="32" height="32" viewBox="0 0 32 32" fill="none" xmlns="http://www.w3.org/2000/svg">
<path d="M29.5484 7.54136C28.5305 7.99162 27.451 8.28732 26.3458 8.41869C27.5108 7.72194 28.3827 6.62538 28.7991 5.33336C27.7058 5.98402 26.5071 6.44002 25.2578 6.68669C24.4186 5.7888 23.3062 5.19331 22.0937 4.9928C20.8812 4.7923 19.6363 4.99801 18.5528 5.57796C17.4692 6.15791 16.6076 7.0796 16.1019 8.19975C15.5962 9.31989 15.4748 10.5757 15.7564 11.772C13.5392 11.6609 11.3702 11.0847 9.39014 10.0809C7.41008 9.0771 5.66326 7.66809 4.26309 5.94536C3.76748 6.79662 3.50703 7.76433 3.50843 8.74936C3.50843 10.6827 4.49243 12.3907 5.98843 13.3907C5.10311 13.3628 4.23727 13.1237 3.46309 12.6934V12.7627C3.46336 14.0503 3.90892 15.2982 4.72422 16.2948C5.53953 17.2914 6.6744 17.9753 7.93643 18.2307C7.11458 18.4534 6.25284 18.4862 5.41643 18.3267C5.77225 19.435 6.46577 20.4043 7.39988 21.0988C8.334 21.7934 9.46193 22.1784 10.6258 22.2C9.46907 23.1085 8.14466 23.78 6.72827 24.1763C5.31187 24.5725 3.83126 24.6857 2.37109 24.5094C4.92002 26.1486 7.88722 27.0189 10.9178 27.016C21.1751 27.016 26.7844 18.5187 26.7844 11.1494C26.7844 10.9094 26.7778 10.6667 26.7671 10.4294C27.8589 9.64025 28.8012 8.66272 29.5498 7.54269L29.5484 7.54136Z" fill="white"/>
</svg>
