<svg width="32" height="32" viewBox="0 0 32 32" fill="none" xmlns="http://www.w3.org/2000/svg">
<path d="M28.7233 8.66404C29.3327 11.04 29.3327 16 29.3327 16C29.3327 16 29.3327 20.96 28.7233 23.336C28.3847 24.6494 27.394 25.6827 26.1393 26.032C23.8607 26.6667 15.9993 26.6667 15.9993 26.6667C15.9993 26.6667 8.14202 26.6667 5.85935 26.032C4.59935 25.6774 3.61002 24.6454 3.27535 23.336C2.66602 20.96 2.66602 16 2.66602 16C2.66602 16 2.66602 11.04 3.27535 8.66404C3.61402 7.35071 4.60468 6.31737 5.85935 5.96804C8.14202 5.33337 15.9993 5.33337 15.9993 5.33337C15.9993 5.33337 23.8607 5.33337 26.1393 5.96804C27.3993 6.32271 28.3887 7.35471 28.7233 8.66404ZM13.3327 20.6667L21.3327 16L13.3327 11.3334V20.6667Z" fill="white"/>
</svg>
